<?xml version="1.0" encoding="UTF-8"?>
<svg id="Layer_2" data-name="Layer 2" xmlns="http://www.w3.org/2000/svg" viewBox="0 0 1441.35 1455.6">
  <defs>
    <style>
      .cls-1 {
        fill: #b83b96;
      }

      .cls-1, .cls-2, .cls-3, .cls-4, .cls-5 {
        stroke-width: 0px;
      }

      .cls-3 {
        fill: #9e2485;
      }

      .cls-4 {
        fill: #432d45;
      }

      .cls-5 {
        fill: #071b1d;
      }
    </style>
  </defs>
  <g id="Layer_1-2" data-name="Layer 1">
    <g>
      <path class="cls-3" d="M524.41,412.41c-36.49,0-68.06-3.27-93.82-9.71C274.58,363.7,51.45,243.24,42.03,238.13l-17.44-9.46,13.85-14.2c1.98-2.04,49.44-50.41,122.38-99.45,42.97-28.89,85.86-51.94,127.48-68.5,52.55-20.92,103.28-31.52,150.76-31.52,56.61,0,108.85,10.56,155.26,31.39,37.27,16.73,70.83,40.05,99.72,69.31,23.52,23.82,40.05,47.6,50.98,66.16,5.48-13.75,13.42-29.85,24.76-45.98,27.06-38.48,79.15-84.35,173.71-84.35s163.5,34.47,207.46,63.39c47.66,31.35,73.56,62.62,74.64,63.94l11.05,13.47-14.96,8.92c-5.71,3.41-140.31,83.62-182.3,100.88-40.32,16.6-124.03,44.73-227.21,69.36-78.18,18.67-191.56,40.92-287.75,40.92Z"/>
      <path class="cls-2" d="M439.06,30c238.84,0,309.49,192.49,309.49,192.49,0,0,24.37-155.95,194.94-155.95s270.5,121.84,270.5,121.84c0,0-138.88,82.85-180.32,99.89-91.14,37.52-339.08,109.15-509.26,109.15-33.73,0-64.39-2.81-90.19-9.26C278.27,349.16,49.18,224.94,49.18,224.94c0,0,190.07-194.94,389.88-194.94M439.06,0C389.67,0,337.08,10.96,282.75,32.59c-42.6,16.96-86.44,40.5-130.3,69.99-74.22,49.89-122.72,99.34-124.75,101.42L0,232.4l34.88,18.91c2.37,1.29,58.94,31.89,135.62,67.78,103.62,48.5,189.9,81.52,256.45,98.16,26.96,6.74,59.75,10.16,97.46,10.16,97.65,0,212.27-22.47,291.24-41.33,104.02-24.84,188.61-53.27,229.44-70.08,42.99-17.67,178.52-98.44,184.27-101.87l29.92-17.85-22.09-26.94c-1.14-1.39-28.45-34.36-77.99-66.96-28.99-19.07-59.86-34.28-91.76-45.2-40.02-13.71-81.72-20.66-123.95-20.66-100.99,0-156.88,49.33-185.98,90.72-5.61,7.98-10.45,15.97-14.6,23.72-10.09-14.39-22.7-30.12-38.19-45.81-30.21-30.59-65.28-54.97-104.25-72.46C552.1,11,497.8,0,439.06,0h0Z"/>
    </g>
    <g>
      <path class="cls-4" d="M827.35,1440.25c-2.04-.11-50.72-2.85-124.14-17.09-67.69-13.13-169.85-38.97-272.18-87.51-115.61-54.84-207.84-126.85-274.12-214.04-83.05-109.24-125.15-242.33-125.15-395.59,0-93.31,15.09-176.95,44.86-248.62,26.35-63.44,64.17-117.65,112.4-161.11,41.84-37.7,90.51-66.6,144.66-85.9,46.48-16.57,95.57-25.32,141.95-25.32,151.74,0,212.84,23.77,234.41,36.2,21.84-11.15,82.94-32.14,233.45-32.14,131.95,0,252.79,48.95,340.27,137.83,45.05,45.78,80.16,100.8,104.35,163.54,25.37,65.81,38.24,139.03,38.24,217.62,0,105.43-31.44,208.59-93.45,306.61-49.25,77.85-117.78,152.61-203.71,222.21-145.76,118.06-289.14,179.57-295.17,182.14l-3.2,1.36-3.47-.19Z"/>
      <path class="cls-2" d="M475.63,220.07c193.3,0,233.93,38.99,233.93,38.99,0,0,40.63-34.93,233.93-34.93,255.06,0,467.86,187.61,467.86,504,0,449.57-583.19,697.15-583.19,697.15,0,0-781.4-42.07-781.4-699.25,0-388.28,263.17-505.95,428.87-505.95M475.63,190.07c-48.08,0-98.91,9.06-146.99,26.19-56.01,19.96-106.37,49.87-149.67,88.89-49.9,44.97-89,100.98-116.21,166.5-30.53,73.49-46,159.08-46,254.37,0,81.59,11.82,158.38,35.12,228.22,21.3,63.84,52.62,123.2,93.09,176.44,67.75,89.11,161.83,162.63,279.63,218.51,45.87,21.76,95.51,40.87,147.54,56.8,41.51,12.71,84.65,23.44,128.21,31.89,74.43,14.44,124.12,17.24,126.2,17.35l6.94.37,6.4-2.72c1.55-.66,38.52-16.43,93.92-47.07,50.94-28.17,127.82-74.84,204.83-137.22,87.19-70.62,156.82-146.61,206.94-225.85,63.55-100.46,95.77-206.32,95.77-314.63,0-80.44-13.2-155.48-39.24-223.02-24.93-64.67-61.15-121.42-107.66-168.67-90.32-91.77-214.96-142.31-350.96-142.31-82.66,0-148.89,6.19-196.85,18.39-15.78,4.02-27.54,8.19-36.2,11.97-8.78-4.33-20.83-9.15-37.16-13.79-48.21-13.69-114.71-20.64-197.65-20.64h0Z"/>
    </g>
    <g>
      <path class="cls-1" d="M474.86,408.12c-15.08,0-29.98-1.81-44.27-5.39C274.58,363.74,51.45,243.24,42.02,238.13l-17.43-9.46,13.85-14.2c1.98-2.04,49.44-50.41,122.38-99.45,42.97-28.89,85.86-51.94,127.48-68.5,52.55-20.92,103.28-31.52,150.76-31.52,56.61,0,108.85,10.56,155.26,31.39,37.27,16.73,70.83,40.05,99.72,69.31,49.24,49.86,67.82,99.52,68.59,101.61l2.86,7.79-5.08,6.56c-1.39,1.79-34.58,44.42-85.93,87.62-30.36,25.54-60.79,45.94-90.44,60.62-37.81,18.73-74.54,28.22-109.19,28.22Z"/>
      <path class="cls-2" d="M439.06,30c238.84,0,309.49,192.48,309.49,192.48,0,0-132.03,170.64-273.69,170.64-13.49,0-27.07-1.55-40.63-4.94C278.27,349.2,49.18,224.94,49.18,224.94c0,0,190.07-194.94,389.88-194.94M439.06,0c-49.39,0-101.98,10.96-156.31,32.59-42.6,16.96-86.44,40.5-130.3,69.99-74.22,49.89-122.72,99.34-124.75,101.42L0,232.4l34.87,18.91c2.37,1.29,58.94,31.9,135.63,67.8,103.62,48.51,189.9,81.54,256.45,98.18,15.48,3.87,31.6,5.83,47.91,5.83,36.97,0,75.95-10.02,115.84-29.78,30.72-15.22,62.16-36.27,93.44-62.58,52.56-44.22,86.71-88.07,88.14-89.92l10.15-13.12-5.72-15.57c-.81-2.21-20.5-54.83-71.99-106.98-30.21-30.59-65.28-54.97-104.25-72.46C552.1,11,497.8,0,439.06,0h0Z"/>
    </g>
    <path class="cls-5" d="M882.86,1188.22c-17.93-11.97,60.63-167.42,60.63-422.32s-199.85-436.4-186.4-453.2c13.49-16.8,264.38,164.84,264.38,453.2s-131.94,426.73-138.6,422.32Z"/>
  </g>
</svg>