<?xml version="1.0" encoding="UTF-8"?>
<svg id="Layer_2" data-name="Layer 2" xmlns="http://www.w3.org/2000/svg" viewBox="0 0 935.24 448.45">
  <defs>
    <style>
      .cls-1 {
        stroke-width: 0px;
      }
    </style>
  </defs>
  <g id="Layer_1-2" data-name="Layer 1">
    <path class="cls-1" d="M925.01,358.96c6.27-5.97,10.24-14.35,10.24-23.69s-4.28-17.08-10.14-23L661.04,48.21l-79.7,79.7,207.9,207.9h-294.55c-14.4-.43-25.81-5.26-35.46-14.62l-132.17-132.17c-13.71-12.96-32.48-21.16-52.83-21.16-.07,0-.14.01-.2.01h0s-161.3-.01-161.3-.01v-55.15h167.06c33.1.03,62.63,13.57,84.28,35.31l98.58,98.58,79.7-79.7-100.5-100.5C399.83,25.04,343.1,0,279.49,0c-.07,0-.14,0-.21,0h0S0,0,0,0v280.58h236.38v.02c15.37.11,29.25,6.43,39.28,16.59l129.44,129.44c13.17,12.93,30.96,21.08,50.68,21.82h357.57c15.05-.2,28.65-6.36,38.57-16.25l73.15-73.14-.05-.09Z"/>
  </g>
</svg>