<?xml version="1.0" encoding="UTF-8"?>
<svg xmlns="http://www.w3.org/2000/svg" viewBox="0 0 1232.88 781.17">
  <defs>
    <style>
      .cls-1, .cls-2, .cls-3, .cls-4, .cls-5, .cls-6, .cls-7 {
        stroke-width: 0px;
      }

      .cls-1, .cls-4 {
        fill: #ef744a;
      }

      .cls-8 {
        isolation: isolate;
      }

      .cls-3 {
        fill: none;
      }

      .cls-9 {
        stroke-width: 9px;
      }

      .cls-9, .cls-10, .cls-11 {
        fill: #f09374;
        stroke: #000;
        stroke-linecap: round;
        stroke-linejoin: round;
      }

      .cls-4, .cls-12 {
        mix-blend-mode: darken;
      }

      .cls-10 {
        stroke-width: 15px;
      }

      .cls-5 {
        fill: #aed086;
      }

      .cls-11 {
        stroke-width: 10px;
      }

      .cls-6 {
        fill: #64b328;
      }

      .cls-7 {
        fill: #eebcad;
      }
    </style>
  </defs>
  <g class="cls-8">
    <g id="Layer_2" data-name="Layer 2">
      <g id="Layer_3" data-name="Layer 3">
        <path class="cls-10" d="M589.69,320.97c-58,1.33-70.77,66-68.67,118.13.67,16.54-8,69.87-31.26,85.87-51.32,35.3-77.41-4-84.74-25.33-7.33-21.33-13.33-140-50.67-165.33-7.71-5.23-14.7-8.67-21.08-10.61-1.78-.42-3.52-.86-5.25-1.3-21.52-4.04-35.55,9.78-46.33,27.92-2.35,3.94-3.63,14.1-4.11,28.42,4.44,11.2,10.56,23.9,18.77,38.25,39.33,68.67,81.33,154,74,214.67-2.65,21.92-8.09,46.28-20.05,68.54,20.62,15.96,45.11,31.39,68.05,38.12,50,14.67,112.67.67,160-48.67,47.33-49.33,59.33-154,66-212s3.33-158-54.67-156.67Z"/>
        <path class="cls-11" d="M431.85,447.8c-10.36-1.75-23.5,8.17-19.17,23.67s21.33,19.17,28.67,9.33,11.17-29.5-9.5-33Z"/>
        <path class="cls-9" d="M481.69,447.6c-10.09-2.03-24.83,9.2-20.83,23.53s16.67,18.83,27.5,12,14.67-31.23-6.67-35.53Z"/>
        <g>
          <path class="cls-6" d="M987.69,3.64c-22.67,16-83.55,23.93-108.33,73-17,33.67-2.67,52.92,0,63.96,14.33-10.63,49.67-10.63,67-48.29,17.33-37.67,27.33-77,41.33-88.67Z"/>
          <path class="cls-2" d="M984.14,6.36c.05,1.81,2.23,3.22,3.64,2.6-1.08.63-2.16,1.33-3.25,1.91-12.98,7-27.16,11.7-40.42,17.78-22.13,9.89-43.1,22.85-55.82,43.56-4.04,6.57-7.34,13.81-9.3,21.29-3.45,12.06-1.85,24.59,3,36.08,1.26,3.13,2.4,5.97,3.41,9.56,0,0-9.78-3.54-9.76-3.54,7.32-5.04,14.78-6.95,22.51-9.88,7.04-2.55,13.71-5.34,19.72-9.06,12.6-7.52,20.77-19.15,26.28-32.52,9.51-20.76,16.75-42.74,26.63-63.59,3.24-6.54,6.87-13.34,12.15-18.63,0,0,.29-.3.29-.3,0,0,.03-.03.03-.03l-.05.05c-1.22,1.31-.62,3.92.94,4.71h0ZM991.24.91c.87,2.37.27,5.39-1.74,7.14,0,0-.21.22-.21.22l-.41.44c-4.17,4.61-6.92,10.19-9.62,15.87-3.12,6.74-5.87,13.8-8.58,20.9-6.06,16-11.97,32.43-19.05,48.28-2.49,5.61-5.53,11.01-9.3,15.91-12.81,17.23-31.44,24.23-50.52,31.36-3.34,1.37-6.48,2.87-8.73,4.56-2.92,2.05-6.99,1.3-8.94-1.7-1.27-2.24-1.34-4.34-2.53-7.04-.73-1.84-1.53-4.16-2.19-6-8.38-22.78-3.24-44.61,9.48-64.61,14.12-22.3,37.53-36.56,61.29-46.6,13.36-5.86,27.15-10.13,40.02-16.73,1.3-.66,2.46-1.42,3.72-2.11,2.04-1.23,5.35-.99,7.33.09h0Z"/>
        </g>
        <path class="cls-10" d="M814.35,452.64c-32-11-83-11-80-31s46,2,73,5,78-29,76-121-77.07-142.02-143-139c-109,5-163,75-181,142-1.95,7.24-2.87,14.77-2.94,22.44,8.94-6.11,19.9-9.79,33.28-10.1,55.61-1.28,60.96,90.58,55.44,149.28,13.08-.6,24.35-4.35,46.23-6.61,29-3,66,28,57,48s-48,4-67-7c-7.8-4.52-22.02-12.92-37.66-21.31-6.81,58.93-19.52,158.55-65.34,206.31-4.34,4.53-8.82,8.75-13.4,12.69,0,0,0,0,0,0,60.6,69.69,142.4,79.31,203.4,64.31s127-110,127-192-49-111-81-122Z"/>
        <path class="cls-10" d="M1205.35,517.64c-39-77-88.98-75-84.49-89,4.49-14,37.49-137,37.49-189s-4-115-55-116-94.98,14.01-122,78c-19,45,1,130,9,150-17-6-39-2-49,6,13-46,16-130,0-177s-70-44-88-34c-13.22,7.35-29.69,14.17-43.84,35.91,40.42,21.31,72.54,63.34,73.84,123.09,1.67,76.92-33.71,111.89-61.13,119.54h0c20.13,23.46,20.95,25.86,28.54,46.66,23.53,18.06,44.59,49.04,44.59,102.8,0,45.6-20.42,95.22-49.03,132.87,23.23,19.95,54.25,38.87,91.03,36.32,24.46-1.7,54.01-16.06,76.92-40.12,36,36,75.08,44.93,143.08,15.93s87-125,48-202Z"/>
        <path class="cls-10" d="M1014.28,703.71c20.18-21.19,35.21-49.89,37.08-84.07,4-73-37-142-107-158,70,16,111,85,107,158-1.87,34.18-16.9,62.88-37.08,84.07"/>
        <path class="cls-10" d="M128.35,120.97c57.96-2.37,80.67,20,134,16.67s92.67-37.33,150.67-32.67c58,4.67,81.33,66,76,115.33-5.33,49.33-54,100.67-102.67,107.33s-98-22.67-109.33-16.67-20,37.33,19.33,106c39.33,68.67,81.33,154,74,214.67s-36,140-165.33,142S31.69,678.97,31.69,633.64s3.33-120.67,43.33-190c40-69.33,80.67-121.33,78-126s-101.33,25.33-134.67-47.33C-14.98,197.64,30.35,124.97,128.35,120.97Z"/>
        <path class="cls-5" d="M875.53,134.2c3.3-16.67,11.63-30.22,24.52-41.14,5.79-5.12,11.61-9.62,16.57-14.81,4.97-5.15,9-11.09,11.77-17.77,1.21-2.82,5.45-1.35,4.61,1.64-2.25,7.51-6.09,14.64-10.95,20.8-9.13,11.65-21.41,20.66-27.46,33.89-2.93,6.1-4.48,12.77-5.24,19.63-1.51,9.63-15.43,7.41-13.82-2.25h0Z"/>
        <path class="cls-2" d="M984.14,6.36c.05,1.81,2.23,3.22,3.64,2.6-1.08.63-2.16,1.33-3.25,1.91-12.98,7-27.16,11.7-40.42,17.78-22.13,9.89-43.1,22.85-55.82,43.56-4.04,6.57-7.34,13.81-9.3,21.29-3.45,12.06-1.85,24.59,3,36.08,1.26,3.13,2.4,5.97,3.41,9.56,0,0-9.78-3.54-9.76-3.54,7.32-5.04,14.78-6.95,22.51-9.88,7.04-2.55,13.71-5.34,19.72-9.06,12.6-7.52,20.77-19.15,26.28-32.52,9.51-20.76,16.75-42.74,26.63-63.59,3.24-6.54,6.87-13.34,12.15-18.63,0,0,.29-.3.29-.3,0,0,.03-.03.03-.03l-.05.05c-1.22,1.31-.62,3.92.94,4.71h0ZM991.24.91c.87,2.37.27,5.39-1.74,7.14,0,0-.21.22-.21.22l-.41.44c-4.17,4.61-6.92,10.19-9.62,15.87-3.12,6.74-5.87,13.8-8.58,20.9-6.06,16-11.97,32.43-19.05,48.28-2.49,5.61-5.53,11.01-9.3,15.91-12.81,17.23-31.44,24.23-50.52,31.36-3.34,1.37-6.48,2.87-8.73,4.56-2.92,2.05-6.99,1.3-8.94-1.7-1.27-2.24-1.34-4.34-2.53-7.04-.73-1.84-1.53-4.16-2.19-6-8.38-22.78-3.24-44.61,9.48-64.61,14.12-22.3,37.53-36.56,61.29-46.6,13.36-5.86,27.15-10.13,40.02-16.73,1.3-.66,2.46-1.42,3.72-2.11,2.04-1.23,5.35-.99,7.33.09h0Z"/>
      </g>
      <g id="Layer_2-2" data-name="Layer 2">
        <path class="cls-3" d="M740.35,166.64c65.93-3.02,141,47,143,139s-49,124-76,121-70-25-73-5,48,20,80,31,81,40,81,122-66,177-127,192-142.8,5.38-203.4-64.31c-60.6-69.69-5.6-244.69,17.4-243.69s80,35,99,46,58,27,67,7-28-51-57-48-39.36,8.6-60,6.04-90-94.04-72-161.04,72-137,181-142Z"/>
        <path class="cls-3" d="M521.02,439.1c-2.1-52.13,10.67-116.8,68.67-118.13,58-1.33,61.33,98.67,54.67,156.67s-18.67,162.67-66,212c-47.33,49.33-110,63.33-160,48.67s-107.33-70.67-116-83.33-35.33-280-20.67-304.67c14.67-24.67,35.33-41.33,72.67-16,37.33,25.33,43.33,144,50.67,165.33s33.42,60.63,84.74,25.33c23.26-16,31.93-69.33,31.26-85.87Z"/>
        <path class="cls-4" d="M363.17,668.07h0c-36.77,33.58-89.49,70.23-174.15,52.23-84.67-18-130.67-140.67-95.33-229.33,35.33-88.67,112.67-156,98.67-182s-98.67-3.33-137.33-49.33c-38.67-46,38-98,79.33-109.33,17.12-4.69,44.41-10.99,71.8-18.41-22.63-5.42-44.35-12.29-77.8-10.92C30.35,124.97-14.98,197.64,18.35,270.3c33.33,72.67,132,42.67,134.67,47.33,2.67,4.67-38,56.67-78,126-40,69.33-43.33,144.67-43.33,190s44,142,173.33,140c104.43-1.61,143.22-53.65,158.15-105.57Z"/>
        <path class="cls-7" d="M233.91,154.75c27.22,1.98,58.89-3.33,70-7.11s15.11-.29,16.44,3.97-6,22.92-41.11,31.14-81.11,1.33-105.11-13.11-10.22-27.78-3.56-26,38.89,9.33,63.33,11.11Z"/>
        <path class="cls-7" d="M379.13,121.53c6.23-1.16,10.56,4.89,5.11,8.33s-10.33-.11-10.11-2,.22-5.44,5-6.33Z"/>
        <path class="cls-7" d="M398.35,120.79c5.49.84,12.44,4.84,10.22,7.95s-11.44,3-15.22,1.44-5.44-4.89-3.22-7.78,5.43-2.05,8.22-1.62Z"/>
        <path class="cls-7" d="M416.91,124.75c4.75,1.16,32.44,12.89,42.22,33.33s9.67,77.11-10.78,104.22-30.44,40.89-42.22,38.22-7.56-26.44,0-33.33,28.89-34.67,33.78-63.56-4.44-57.11-19.78-66.89-6.68-12.84-3.22-12Z"/>
        <path class="cls-7" d="M301.91,525.86c7.96,40.2,17.33,99.11,13.33,131.11s20.44,32.44,25.78,19.11,5.78-84.44-4-120.44-28.89-94.75-40.44-88.71-.3,30.46,5.33,58.93Z"/>
        <path class="cls-7" d="M276.8,440.19c2.58,8.71,7.56,24.44,16.11,21.33s.11-19.67-3.44-25.78-7-11-11.33-8.33-3.02,7.08-1.33,12.78Z"/>
        <path class="cls-7" d="M580.02,336.97c-8.61,5.48-4,12.67,4.67,23.33s24.67,34,25.33,77.33,2.33,73.33,0,87.33-10,37-4,39.33,14-16.67,18.67-49.67,5.67-114-3-138.67-30.67-46-41.67-39Z"/>
        <path class="cls-7" d="M589.52,612.3c-6.19,12.74-12.67,27.83-5.17,30.83s13.44-15,17.47-24.5,8.53-20,2.86-22.33-12.92,11.38-15.17,16Z"/>
        <path class="cls-7" d="M575.43,650.3c3.2-4.93,7.59-4.5,9.42-2.83s2.33,5.83-1.33,10.33-7,5.5-9,3.67-2.02-6.67.91-11.17Z"/>
        <path class="cls-7" d="M556.35,674.8c5.09-5.25,12-13.5,15.17-10s-2.83,11.17-7.58,15.33-14.08,14.5-16.58,10.67,4.99-11.86,9-16Z"/>
        <path class="cls-4" d="M880.51,624.03c-25.27,35.65-65.65,57.46-106.34,73.38-21.85,8.55-44.67,15.85-68.13,15.96-23.46.11-47.88-7.87-63.22-25.62-11.93-13.81-17.39-32.26-18.58-50.47-.76-11.69.1-23.4,1.53-35,.55-4.47,1.97-10.23.62-14.52-9.75,39.28-24.54,77.39-48.03,101.88-4.34,4.53-8.82,8.75-13.4,12.69,0,0,0,0,0,0,60.6,69.69,142.4,79.31,203.4,64.31,53.24-13.09,110.29-87.14,123.94-160.28-4.01,5.82-7.71,11.94-11.78,17.68Z"/>
        <path class="cls-4" d="M763.4,504.52c-1.94-25.33-19.39-37.69-37.29-48.36-17.91-10.67-39.92-14.25-60.28-9.79,5.54-31.87,3.07-65.1-7.13-95.8-2.98-8.96-6.65-17.8-12.21-25.42-5.9-8.09-13.76-14.58-22.21-19.96-5.15-3.28-10.69-6.23-16.73-7.18-5.93-.93-12,.11-17.84,1.54-10.61,2.59-20.82,6.39-30.79,10.84-1.64,6.69-2.41,13.62-2.49,20.67,8.93-6.1,19.89-9.78,33.25-10.09,55.61-1.28,60.96,90.58,55.44,149.28,13.08-.6,24.35-4.35,46.23-6.61,29-3,66,28,57,48-3.54,7.88-11.75,10.15-21.54,9.37,4.49,4.47,9.72,8.24,15.82,9.74,7.48,1.84,14.53-2.21,18.38-8.89,3.25-5.63,2.88-10.86,2.38-17.34Z"/>
        <path class="cls-7" d="M857.69,508.53c16.96,23.25,20.67,66.89,11.78,68.44s-9.56-18.44-13.11-28.67-24.44-52.67-38.44-64.22-15.78-13.56-14-16,22.89,2.44,35.56,16.67,12.22,15.56,18.22,23.78Z"/>
        <path class="cls-7" d="M865.24,591.86c1.4,9.92,2.89,9.33,4.89,9.56s5.56-2.89,5.78-9.56-3.11-11.78-6.44-10.67-5.07,4.67-4.22,10.67Z"/>
        <path class="cls-7" d="M1188.35,614.64c-2.89,22.5-11.67,37-10.67,43.67s4.33,4.67,6.67,3,18.33-21.67,21-43,.67-57-5.67-61.67-10.33,1-11.33,5.33,1.67,39.69,0,52.67Z"/>
        <path class="cls-7" d="M1187.02,544.97c1.8,6.95,7.67,8.33,11.33,3.67s.67-11-2-13.67-11.67,1-9.33,10Z"/>
        <path class="cls-7" d="M1102.02,384.64c-9,27-16.33,47-7.67,64s47,36.67,54,37,10.67-3,6.67-8-32.67-17.33-40-25.67-9.33-17.43-6.33-37.55,22-56.45,19.67-63.78-11-1.33-13.67,5.67-9.6,19.13-12.67,28.33Z"/>
        <path class="cls-7" d="M1158.02,492.34c2.41,2.92,5.46,3.21,7.33,1.12s1.42-5.12-.79-7.25-4.71-2.75-6.54-1-1.75,5,0,7.12Z"/>
        <path class="cls-7" d="M1167.65,499.64c1.67,2.37,5,2.88,6.42,1.5s1.79-4.92-.67-6.96-5.04-.96-5.75,0-1.5,3.33,0,5.46Z"/>
        <path class="cls-7" d="M1101.52,160.47c11.84,12.32,21.17,20.5,24.17,46.33s-1.67,63.67,7.17,67.83,11.5-9.67,12-18,3-59.5-3.33-79.17-17.67-36.83-31.67-39-17,12.98-8.33,22Z"/>
        <path class="cls-7" d="M1090.44,136.05c4.54,0,6.25,2.92,5.42,6.88s-5.25,3.79-6.67,3.54-4.74-1.42-4.25-6.33c.29-2.92,2.88-4.08,5.5-4.08Z"/>
        <path class="cls-7" d="M1073.94,137.22c5.64-1.12,7,1.54,7.04,4.96s-2.21,4.35-6.46,4.4-7.42-1.15-7.38-3.94,1.96-4.46,6.79-5.42Z"/>
        <path class="cls-7" d="M909.69,204.14c12.5,24.08,12.5,81,18.17,90s11.33,3.83,11-3.83,3-68.17-6-90.33-20-42.17-31.17-42.83-18,8.67-12.5,18.5,13.67,15.33,20.5,28.5Z"/>
        <path class="cls-7" d="M926.52,311.64c-.23,11.34,8.33,11.5,10,3.83s.5-11.67-2.33-12.33-7.5.33-7.67,8.5Z"/>
        <path class="cls-7" d="M836.13,237.64c17.03,22.9,39.56,79.11,27.78,86s-14.22-3.32-16.89-11.77-29.33-57.34-45.78-74.23-42.22-35.56-39.33-43.78,12.23-8,24.01-2,37.33,28.44,50.22,45.78Z"/>
        <path class="cls-7" d="M856.35,341.86c-.26,8.4-.06,14.94,4.44,14.33s8.11-2.61,8.94-11.22-.89-14.11-5.94-15.11-7.28,6.89-7.44,12Z"/>
        <path class="cls-4" d="M430.53,684.53c-22.73-21.78-40.95-39.11-41.39-78.22-.44-39.11-44.89-141.78-57.78-163.11-12.89-21.33-36.44-59.56-36-75.56.31-11.16,2.57-29.88,11.3-42.45-9.79,4.83-17.47,14.19-23.97,25.12-2.47,4.15-3.77,15.19-4.17,30.73,4.35,10.63,10.18,22.57,17.84,35.94,39.33,68.67,81.33,154,74,214.67-2.63,21.74-8,45.88-19.76,68,20.77,16.15,45.55,31.86,68.76,38.67,43.04,12.63,95.47,3.98,139.42-30.14-48.09,5.57-105.53-1.87-128.25-23.64Z"/>
        <path class="cls-7" d="M433.52,454.86c-9.58,0-9.6,14.89,0,14.89s9.6-14.89,0-14.89Z"/>
        <path class="cls-7" d="M483.02,454.19c-9.58,0-9.6,14.89,0,14.89s9.6-14.89,0-14.89Z"/>
        <g class="cls-12">
          <path class="cls-1" d="M1150.35,704.53c-31.56,7.11-60.44,11.11-53.78-20.89,6.67-32,37.33-98.22-12-168.89-49.33-70.67-123.11-79.11-140-69.33s-.44,25.03,10.67,21.4c11.11-3.62,71.28,26.59,85.64,82.82,14.36,56.22,12.58,114.89-24.31,131.78-36.89,16.89-104.89,28.44-94.67-21.78s22.67-65.6,8.89-127.25c-13.78-61.64-50.22-88.75-62.22-95.86,24-29.33,41.33-87.56,35.11-138.22-6.22-50.66-26.65-89.36-80.87-131.79-4.36,4.1-8.66,9.06-12.78,15.26,2.52,1.78,5.17,3.64,7.91,5.61,17.3,10.71,32.66,25.43,44.15,43.9,15.14,23.57,25.18,56.52,20.25,105.02-4.22,41.56-19.07,61.54-32.6,72.43-7.54,7.25-15.56,12.16-23.16,15.01-.77,2.11.43,5.59,2.96,10.07,1.22,1.47,2.35,2.85,3.39,4.14.49.62.96,1.21,1.42,1.79.94,1.2,1.8,2.33,2.59,3.41.17.23.34.47.51.7.34.48.67.94.99,1.4,2.2,3.17,3.87,6.01,5.36,9.06,14.51,19.17,34,43.41,41.88,63.31,13.64,34.45,25.6,109.05-32.06,179.73-2.37,3.46-4.8,6.85-7.3,10.14,0,0,0,0,0,0,2.81,2.41,5.73,4.81,8.76,7.15.16.12.32.25.48.37.64.5,1.29.99,1.95,1.48.22.17.44.33.67.5.65.48,1.3.96,1.96,1.44.13.1.27.19.4.28,1.33.95,2.68,1.9,4.04,2.82.22.15.44.31.67.46.58.39,1.16.77,1.75,1.15.38.25.76.5,1.15.75.56.36,1.12.71,1.68,1.06.43.27.86.53,1.29.8.54.33,1.09.67,1.64.99.51.3,1.03.6,1.54.9.81.47,1.62.93,2.43,1.38.61.34,1.23.68,1.85,1.01.48.26.97.51,1.45.76.57.3,1.14.59,1.72.88.49.25.98.49,1.47.73.61.3,1.22.59,1.83.87.46.22.92.43,1.38.65.83.38,1.67.75,2.51,1.11.39.17.78.34,1.18.5.92.38,1.84.76,2.77,1.12.42.16.84.32,1.26.48.72.27,1.44.54,2.16.79.45.16.9.31,1.35.47.74.25,1.49.5,2.24.74.41.13.82.26,1.23.39,1.06.32,2.13.63,3.2.93.14.04.27.08.41.11,1.13.3,2.26.58,3.4.85.39.09.79.17,1.18.26.82.18,1.64.35,2.47.52.44.09.88.17,1.31.25.84.15,1.68.29,2.52.42.4.06.79.13,1.19.18,1.21.17,2.42.33,3.65.46.02,0,.05,0,.07,0,1.24.13,2.5.23,3.76.31.4.03.79.04,1.19.06.89.05,1.78.09,2.67.11.45.01.9.02,1.35.03.9.01,1.8,0,2.71,0,.41,0,.81,0,1.22-.02,1.3-.04,2.61-.09,3.92-.18.74-.05,1.49-.12,2.24-.19.25-.03.51-.06.76-.09.5-.05,1-.11,1.51-.17.3-.04.61-.09.91-.13.46-.06.92-.13,1.38-.2.33-.05.66-.11.98-.17.44-.08.89-.15,1.33-.23.34-.06.68-.13,1.03-.2.44-.09.87-.17,1.31-.26.35-.07.7-.15,1.05-.23.43-.1.87-.2,1.3-.3.35-.09.71-.17,1.07-.26.43-.11.87-.22,1.3-.34.36-.1.72-.2,1.09-.3.43-.12.87-.24,1.3-.37.36-.11.73-.21,1.09-.33.44-.13.87-.27,1.31-.41.36-.12.73-.23,1.09-.35.44-.15.88-.3,1.33-.45.36-.12.72-.25,1.09-.38.45-.16.89-.32,1.34-.49.36-.13.72-.27,1.08-.4.45-.17.91-.35,1.36-.53.35-.14.71-.28,1.06-.42.47-.19.94-.39,1.41-.59.34-.14.68-.28,1.02-.43.5-.22,1-.44,1.49-.66.31-.14.62-.28.93-.42.57-.26,1.13-.53,1.7-.8.24-.12.49-.23.73-.35.81-.39,1.62-.79,2.42-1.21.13-.07.26-.14.4-.21.68-.35,1.35-.7,2.03-1.06.28-.15.56-.31.85-.47.52-.29,1.05-.57,1.57-.87.32-.18.64-.37.97-.56.48-.28.96-.55,1.44-.84.34-.2.68-.41,1.02-.61.46-.28.92-.56,1.38-.84.35-.22.7-.44,1.04-.66.45-.28.89-.57,1.34-.86.35-.23.71-.46,1.06-.7.44-.29.88-.58,1.31-.88.35-.24.71-.48,1.06-.73.43-.3.87-.6,1.3-.91.35-.25.71-.5,1.06-.76.43-.31.86-.62,1.28-.94.35-.26.7-.52,1.05-.78.43-.32.85-.65,1.28-.97.35-.27.69-.53,1.03-.8.42-.33.85-.67,1.27-1.01.34-.27.68-.55,1.02-.83.42-.35.84-.7,1.27-1.05.33-.28.66-.55.99-.84.43-.37.85-.74,1.28-1.11.32-.28.64-.55.95-.83.44-.39.87-.79,1.31-1.18.3-.27.6-.54.9-.82.46-.43.92-.87,1.38-1.3.26-.25.53-.5.79-.75.55-.53,1.09-1.06,1.63-1.6.17-.17.34-.34.51-.51.71-.71,1.41-1.44,2.11-2.17.03-.03.06-.06.09-.09h0c36,36,75.02,44.99,143.02,15.99,26.54-11.32,45.61-32.84,56.69-59.45-18.83,17.87-45.27,40.19-63.69,44.34Z"/>
          <path class="cls-1" d="M1046.62,132.06c-1.11.43-2.22.87-3.31,1.33-1.35.57-2.7,1.18-4.03,1.81-.67.32-1.33.64-1.99.97-1.32.66-2.63,1.36-3.93,2.09-.65.36-1.29.73-1.94,1.11-1.28.76-2.56,1.55-3.82,2.37-.63.41-1.26.83-1.88,1.26-3.12,2.14-6.17,4.5-9.13,7.08-1.19,1.03-2.36,2.1-3.52,3.21-2.32,2.21-4.58,4.57-6.79,7.09-1.1,1.26-2.19,2.56-3.27,3.9-2.15,2.68-4.25,5.52-6.28,8.52-.51.75-1.01,1.51-1.51,2.29-1.5,2.32-2.97,4.74-4.41,7.25-1.43,2.52-2.83,5.13-4.2,7.85-.91,1.81-1.8,3.67-2.68,5.58-.88,1.91-1.74,3.86-2.58,5.86-19,45,1,130,9,150-3.06-1.08-6.28-1.83-9.56-2.3,7.26,9.59,16.13,14.64,24.67,5.85,8.02-8.25-2.91-54.59-1.78-103.56.97-42.12,19.09-92.24,42.93-119.58Z"/>
        </g>
      </g>
    </g>
  </g>
</svg>